<svg width="136" height="115" viewBox="0 0 136 115" fill="none" xmlns="http://www.w3.org/2000/svg">
<g clip-path="url(#clip0_862_9568)">
<path d="M46.3939 77.0839V45.8622H39.1763V37.8613H56.3534V77.0839H46.3939Z" fill="#25364D" fill-opacity="0.5"/>
<path d="M93.7839 47.9884C93.7839 51.4014 91.9375 54.4227 88.8602 56.1015C93.1681 57.8916 95.854 61.6406 95.854 66.0048C95.854 73.0545 89.5872 77.5309 79.7959 77.5309C70.0043 77.5309 63.7378 73.1104 63.7378 66.173C63.7378 61.6966 66.6472 57.8916 71.1792 56.1015C67.8781 54.2548 65.752 51.122 65.752 47.709C65.752 41.4419 71.2355 37.4697 79.74 37.4697C88.3563 37.4697 93.7839 41.5541 93.7839 47.9884ZM73.1375 65.1658C73.1375 68.4673 75.4877 70.3136 79.7959 70.3136C84.1041 70.3136 86.51 68.5236 86.51 65.1658C86.51 61.9211 84.1041 60.074 79.7959 60.074C75.4874 60.074 73.1375 61.9207 73.1375 65.1658ZM74.1449 48.5479C74.1449 51.3461 76.1591 52.912 79.7959 52.912C83.4327 52.912 85.4469 51.3458 85.4469 48.5479C85.4469 45.6392 83.4327 44.0163 79.7959 44.0163C76.1588 44.0163 74.1449 45.6392 74.1449 48.5479Z" fill="#25364D" fill-opacity="0.5"/>
<path d="M112.427 42.2887C114.082 47.1756 114.922 52.287 114.922 57.5002C114.922 83.6402 93.6555 104.907 67.5152 104.907C41.3748 104.907 20.1077 83.6402 20.1077 57.5002C20.1077 31.3595 41.3745 10.0934 67.5148 10.0934C72.7287 10.0934 77.8401 10.9327 82.7263 12.5892V2.03939C77.7908 0.686441 72.6934 0 67.5152 0C35.8099 0 10.0154 25.7945 10.0154 57.5002C10.0154 89.2058 35.8099 115 67.5152 115C99.2205 115 125.015 89.2058 125.015 57.5002C125.015 52.3223 124.329 47.2245 122.976 42.2887H112.427Z" fill="#25364D" fill-opacity="0.5"/>
<path d="M109.557 15.4248V4.39941H101.629V15.4248H90.6699V23.3522H101.629V34.3773H109.557V23.3522H120.582V15.4248H109.557Z" fill="#25364D" fill-opacity="0.5"/>
</g>
<defs>
<clipPath id="clip0_862_9568">
<rect width="115" height="115" fill="white" transform="translate(10.015)"/>
</clipPath>
</defs>
</svg>
