<svg width="31" height="32" viewBox="0 0 31 32" fill="none" xmlns="http://www.w3.org/2000/svg">
<path d="M34 3.82617H-3V28.4931H34V3.82617Z" fill="#6DA544"/>
<path d="M15.5 9.34375L24.75 16.1596L15.5 22.9754L6.25 16.1596L15.5 9.34375Z" fill="#FFDA44"/>
<path d="M15.5 20.054C17.651 20.054 19.3947 18.3103 19.3947 16.1593C19.3947 14.0084 17.651 12.2646 15.5 12.2646C13.349 12.2646 11.6053 14.0084 11.6053 16.1593C11.6053 18.3103 13.349 20.054 15.5 20.054Z" fill="#F0F0F0"/>
<path d="M13.5526 15.916C12.8753 15.916 12.2217 16.0191 11.6065 16.2101C11.6337 18.3376 13.366 20.0542 15.4999 20.0542C16.8194 20.0542 17.9849 19.3973 18.6893 18.3934C17.4842 16.8846 15.6295 15.916 13.5526 15.916Z" fill="#0052B4"/>
<path d="M19.3225 16.9056C19.3694 16.664 19.3948 16.4147 19.3948 16.1594C19.3948 14.0084 17.651 12.2646 15.5 12.2646C13.895 12.2646 12.5172 13.2358 11.9209 14.6222C12.4479 14.513 12.9937 14.4555 13.5526 14.4555C15.8148 14.4555 17.8612 15.3958 19.3225 16.9056Z" fill="#0052B4"/>
</svg>
