<svg width="25" height="26" viewBox="0 0 25 26" fill="none" xmlns="http://www.w3.org/2000/svg">
<mask id="mask0_862_9642" style="mask-type:luminance" maskUnits="userSpaceOnUse" x="0" y="0" width="25" height="26">
<path d="M25 0.959961H0V25.96H25V0.959961Z" fill="white"/>
</mask>
<g mask="url(#mask0_862_9642)">
<path d="M25 13.4864C25 6.62379 19.4367 1.06055 12.5741 1.06055C5.7115 1.06055 0.148254 6.62379 0.148254 13.4864C0.148254 20.349 5.7115 25.9123 12.5741 25.9123C19.4367 25.9123 25 20.349 25 13.4864Z" fill="url(#paint0_linear_862_9642)"/>
<path opacity="0.1" d="M21.9262 5.31193C20.1146 8.63746 17.5526 12.0677 14.3514 15.269C11.1501 18.4702 7.71986 21.0274 4.39922 22.8389C4.19103 22.658 3.98884 22.4694 3.79264 22.2732C2.60672 21.1269 1.66088 19.7559 1.01029 18.2402C0.359696 16.7246 0.0173607 15.0946 0.0032473 13.4452C-0.0108661 11.7959 0.303524 10.1603 0.928085 8.63371C1.55265 7.10717 2.47488 5.72022 3.64102 4.55376C4.80715 3.3873 6.19384 2.46468 7.7202 1.83969C9.24659 1.21471 10.8821 0.899859 12.5315 0.913512C14.1808 0.927165 15.811 1.26904 17.3268 1.91922C18.8426 2.56939 20.2139 3.51484 21.3605 4.70044C21.5567 4.89664 21.7453 5.10047 21.9262 5.31193Z" fill="white"/>
<path d="M15.4136 7.17676H9.73464C8.81415 7.17676 7.93145 7.5424 7.28061 8.19327C6.62975 8.84411 6.2641 9.72681 6.2641 10.6472V16.3263C6.2641 17.2467 6.62975 18.1295 7.28061 18.7803C7.93145 19.4311 8.81415 19.7967 9.73464 19.7967H15.4136C16.334 19.7967 17.2168 19.4311 17.8676 18.7803C18.5185 18.1295 18.8841 17.2467 18.8841 16.3263V10.6472C18.8841 9.72681 18.5185 8.84411 17.8676 8.19327C17.2168 7.5424 16.334 7.17676 15.4136 7.17676ZM17.7798 15.8278C17.7798 16.5876 17.478 17.3162 16.9408 17.8535C16.4035 18.3907 15.6749 18.6925 14.9151 18.6925H10.2331C9.47332 18.6925 8.74464 18.3907 8.20742 17.8535C7.6702 17.3162 7.36832 16.5876 7.36832 15.8278V11.1458C7.36832 10.386 7.6702 9.6573 8.20742 9.12008C8.74464 8.58285 9.47332 8.28098 10.2331 8.28098H14.9151C15.6749 8.28098 16.4035 8.58285 16.9408 9.12008C17.478 9.6573 17.7798 10.386 17.7798 11.1458V15.8278Z" fill="white"/>
<path d="M14.8757 11.2093L14.8457 11.1793L14.8205 11.1541C14.224 10.5597 13.4162 10.2261 12.5741 10.2266C12.1489 10.2294 11.7284 10.3161 11.3367 10.4815C10.9449 10.647 10.5896 10.888 10.291 11.1908C9.99249 11.4936 9.75652 11.8523 9.59659 12.2463C9.43673 12.6403 9.35603 13.062 9.35916 13.4873C9.35846 14.3502 9.69867 15.1785 10.3056 15.792C10.603 16.0929 10.9572 16.3316 11.3478 16.4941C11.7383 16.6566 12.1574 16.7397 12.5804 16.7384C13.2149 16.7252 13.8319 16.5275 14.356 16.1696C14.8801 15.8117 15.2887 15.309 15.5321 14.7228C15.7754 14.1366 15.8429 13.4923 15.7264 12.8684C15.6098 12.2445 15.3142 11.6681 14.8757 11.2093ZM12.5741 15.6264C12.1498 15.6323 11.7333 15.5119 11.3776 15.2805C11.0219 15.0491 10.7431 14.7171 10.5766 14.3268C10.4101 13.9365 10.3634 13.5055 10.4426 13.0886C10.5217 12.6717 10.723 12.2877 11.0209 11.9856C11.3189 11.6834 11.6999 11.4767 12.1157 11.3917C12.5314 11.3067 12.963 11.3473 13.3556 11.5083C13.7483 11.6693 14.0842 11.9434 14.3205 12.2958C14.5569 12.6482 14.6832 13.0629 14.6832 13.4873C14.6853 13.7662 14.6324 14.0429 14.5275 14.3014C14.4226 14.5599 14.2678 14.7952 14.0719 14.9939C13.876 15.1925 13.643 15.3506 13.386 15.4591C13.1289 15.5677 12.853 15.6245 12.5741 15.6264Z" fill="white"/>
<path d="M16.7434 10.0767C16.7442 10.1779 16.7251 10.2783 16.6871 10.3721C16.6491 10.4659 16.5929 10.5513 16.5219 10.6234C16.4508 10.6955 16.3662 10.7529 16.2729 10.7923C16.1796 10.8316 16.0796 10.8522 15.9783 10.8528C15.8779 10.8527 15.7785 10.8328 15.686 10.7941C15.5933 10.7554 15.5094 10.6986 15.4388 10.6273C15.3319 10.5188 15.2592 10.3814 15.2297 10.232C15.2003 10.0827 15.2152 9.92795 15.2728 9.78697C15.3305 9.64607 15.4281 9.52517 15.5538 9.43927C15.6795 9.35336 15.8277 9.30621 15.9799 9.30371C16.158 9.30364 16.3305 9.36621 16.4673 9.48038L16.4831 9.49614C16.5085 9.51684 16.5318 9.5401 16.5525 9.56559L16.5698 9.58448C16.6828 9.72364 16.7441 9.89753 16.7434 10.0767Z" fill="white"/>
</g>
<defs>
<linearGradient id="paint0_linear_862_9642" x1="3.78773" y1="4.70002" x2="21.3605" y2="22.2728" gradientUnits="userSpaceOnUse">
<stop stop-color="#FAE100"/>
<stop offset="0.15" stop-color="#FCB720"/>
<stop offset="0.3" stop-color="#FF7950"/>
<stop offset="0.5" stop-color="#FF1C74"/>
<stop offset="1" stop-color="#6C1CD1"/>
</linearGradient>
</defs>
</svg>
