<svg width="25" height="26" viewBox="0 0 25 26" fill="none" xmlns="http://www.w3.org/2000/svg">
<g clip-path="url(#clip0_862_9652)">
<mask id="mask0_862_9652" style="mask-type:luminance" maskUnits="userSpaceOnUse" x="0" y="0" width="25" height="26">
<path d="M25 0.959961H0V25.96H25V0.959961Z" fill="white"/>
</mask>
<g mask="url(#mask0_862_9652)">
<path d="M12.5 25.96C19.4035 25.96 25 20.3635 25 13.46C25 6.5564 19.4035 0.959961 12.5 0.959961C5.59644 0.959961 0 6.5564 0 13.46C0 20.3635 5.59644 25.96 12.5 25.96Z" fill="#1C8ADB"/>
<path d="M17.6919 8.85712L17.4948 8.92858L6.79557 12.7814C6.71975 12.8048 6.65386 12.8527 6.60821 12.9176C6.56256 12.9825 6.53975 13.0607 6.54334 13.1399C6.54693 13.2191 6.57673 13.295 6.62806 13.3555C6.67939 13.4159 6.74936 13.4577 6.82699 13.4742L9.5966 14.232L10.1132 15.7475L10.6299 17.2631C10.6596 17.3374 10.7069 17.4033 10.7679 17.4552C10.8288 17.507 10.9015 17.5432 10.9797 17.5606C11.0578 17.578 11.139 17.576 11.2162 17.5549C11.2934 17.5339 11.3643 17.4942 11.4227 17.4396L12.8535 16.0885L15.6632 17.9927C16.0066 18.2266 16.4961 18.0534 16.5839 17.668L18.4447 9.45038C18.5357 9.0433 18.1067 8.70879 17.6919 8.85712ZM16.3261 10.6812L11.4921 14.6303L11.2646 14.8166C11.2147 14.8561 11.182 14.9136 11.1736 14.9768L11.1227 15.3968L10.983 16.5768C10.9841 16.5911 10.9795 16.6053 10.9702 16.6163C10.9608 16.6273 10.9475 16.6341 10.9331 16.6352C10.9188 16.6364 10.9046 16.6318 10.8936 16.6224C10.8826 16.6131 10.8758 16.5998 10.8747 16.5854L10.4815 15.4065L10.0753 14.1995C10.0581 14.1452 10.0604 14.0867 10.0817 14.0339C10.1031 13.9811 10.1422 13.9375 10.1923 13.9105L15.2224 11.0287L16.169 10.4874C16.3066 10.4073 16.4474 10.5816 16.3261 10.6812Z" fill="white"/>
</g>
</g>
<defs>
<clipPath id="clip0_862_9652">
<rect width="25" height="25" fill="white" transform="translate(0 0.959961)"/>
</clipPath>
</defs>
</svg>
